<svg xmlns="http://www.w3.org/2000/svg" viewBox="0 0 512 512" fill="none">
  <rect width="512" height="512" rx="100" fill="#1b2b4b"/>
  <path d="M256 120C196.6 120 148 168.6 148 228v28c-22 0-40 18-40 40v116c0 22 18 40 40 40h216c22 0 40-18 40-40V296c0-22-18-40-40-40v-28c0-59.4-48.6-108-108-108zm0 40c37.6 0 68 30.4 68 68v28H188v-28c0-37.6 30.4-68 68-68zm0 156c22 0 40 18 40 40s-18 40-40 40-40-18-40-40 18-40 40-40z" fill="#ffffff"/>
  <text x="256" y="450" text-anchor="middle" fill="#3b82f6" font-family="Arial, sans-serif" font-size="80" font-weight="bold">EP</text>
</svg>
